<?xml version="1.0" standalone="no"?>
<!DOCTYPE svg PUBLIC "-//W3C//DTD SVG 20010904//EN"
 "http://www.w3.org/TR/2001/REC-SVG-20010904/DTD/svg10.dtd">
<svg version="1.0" xmlns="http://www.w3.org/2000/svg"
 width="500.000000pt" height="500.000000pt" viewBox="0 0 500.000000 500.000000"
 preserveAspectRatio="xMidYMid meet">
<metadata>
Created by potrace 1.14, written by Peter Selinger 2001-2017
</metadata>
<g transform="translate(0.000000,500.000000) scale(0.100000,-0.100000)"
fill="#000000" stroke="none">
<path d="M2954 3054 c-13 -5 -6 -54 7 -54 5 0 9 4 9 8 0 9 42 8 58 -2 11 -7
16 -1 13 17 -1 5 9 5 21 1 25 -8 98 -82 98 -100 0 -6 7 -17 15 -24 26 -22 18
13 -14 56 -39 54 -58 69 -115 88 -50 16 -71 18 -92 10z"/>
<path d="M2823 3039 c-13 -4 -23 -11 -23 -13 0 -3 8 -2 17 1 12 5 15 2 10 -10
-3 -9 -2 -19 3 -22 16 -10 -13 -32 -34 -27 -17 5 -18 1 -12 -28 8 -43 9 -44
50 -36 l36 7 -6 62 c-8 72 -11 78 -41 66z m25 -107 c2 -7 -3 -12 -12 -12 -9 0
-16 7 -16 16 0 17 22 14 28 -4z"/>
<path d="M2922 2963 c-2 -39 11 -63 26 -48 3 3 1 9 -5 13 -6 4 -13 23 -16 42
-4 34 -4 34 -5 -7z"/>
<path d="M2654 2983 c-13 -2 -24 -14 -26 -28 -3 -15 -1 -22 5 -18 5 3 7 0 5
-8 -5 -13 27 -89 37 -89 18 0 55 26 55 40 0 30 -32 110 -43 109 -7 -1 -22 -4
-33 -6z"/>
<path d="M2503 2899 c-33 -21 -40 -33 -25 -42 4 -2 0 -1 -8 1 -34 12 -123 13
-151 2 -41 -17 -62 -63 -63 -135 0 -73 17 -108 89 -185 29 -30 57 -65 64 -77
17 -33 14 -122 -4 -129 -30 -12 -45 15 -45 82 l0 64 -56 0 -57 0 7 -71 c7 -83
25 -130 57 -153 30 -21 120 -21 159 -1 28 15 30 14 30 -5 0 -11 4 -20 9 -20 4
0 6 -12 3 -26 -4 -24 -3 -25 17 -15 22 12 28 27 12 33 -5 2 -3 9 5 16 12 11
14 9 14 -13 0 -26 14 -32 39 -16 12 8 12 19 -4 73 -9 34 -19 66 -21 70 -8 13
-34 -4 -33 -21 0 -10 2 -11 6 -3 2 6 9 12 15 12 6 0 8 -6 5 -14 -3 -7 -1 -18
4 -23 7 -7 5 -12 -5 -16 -10 -4 -16 -1 -16 8 0 8 -6 15 -13 15 -17 0 -9 80 9
87 8 3 14 19 14 39 0 27 -3 32 -17 27 -12 -5 -15 -2 -10 10 3 9 2 16 -4 14 -5
-1 -17 13 -24 32 -14 31 -14 33 3 27 12 -4 11 -2 -3 7 -11 7 -48 39 -82 73
-55 52 -63 66 -63 97 0 25 6 39 18 46 29 15 42 -6 42 -66 l0 -53 50 0 50 0 0
60 c0 33 -7 77 -15 98 -8 20 -9 28 -2 18 7 -10 22 -31 34 -45 l22 -26 30 30
31 30 -32 53 c-18 28 -37 52 -43 52 -5 0 -25 -10 -42 -21z m57 -8 c0 -5 -6
-14 -14 -20 -11 -9 -15 -7 -19 9 -4 15 0 20 14 20 10 0 19 -4 19 -9z m-16
-456 c3 -8 1 -15 -4 -15 -6 0 -10 7 -10 15 0 8 2 15 4 15 2 0 6 -7 10 -15z
m-12 -187 c-7 -7 -12 -8 -12 -2 0 6 3 14 7 17 3 4 9 5 12 2 2 -3 -1 -11 -7
-17z"/>
<path d="M2989 2894 l33 -29 -111 3 -111 4 0 -26 c0 -19 -5 -26 -20 -26 -11 0
-20 -4 -20 -9 0 -5 -9 -11 -21 -14 -28 -7 -16 -25 24 -35 32 -8 32 -9 30 -68
-4 -94 -4 -108 -1 -128 2 -10 -2 -21 -9 -23 -8 -3 -11 3 -8 18 6 29 -1 38 -25
32 -16 -4 -20 -14 -20 -49 0 -49 9 -59 36 -39 27 20 34 18 34 -8 0 -16 -9 -28
-25 -35 -31 -14 -31 -17 0 -71 18 -31 25 -58 25 -97 l0 -54 55 0 55 0 0 91 c0
62 3 88 11 83 12 -7 69 43 69 62 0 7 9 15 20 19 11 3 36 26 56 51 30 36 34 47
24 59 -6 8 -9 18 -6 23 6 10 10 131 5 152 -2 8 -10 21 -16 28 -7 7 -13 23 -13
35 -1 28 -19 52 -45 59 -11 3 -29 9 -40 13 -12 5 -7 -3 14 -21z m-31 -151 c-2
-26 1 -37 10 -35 19 3 15 -52 -7 -79 -10 -13 -16 -30 -14 -36 3 -8 -3 -13 -14
-13 -16 0 -18 10 -19 100 -1 99 -1 100 23 100 21 0 24 -4 21 -37z"/>
<path d="M3801 2868 c-42 -23 -64 -63 -69 -126 -6 -78 17 -127 96 -214 65 -72
75 -94 70 -149 -2 -26 -8 -34 -23 -34 -18 0 -20 8 -23 73 l-3 72 -61 0 -61 0
5 -83 c3 -49 12 -97 22 -116 43 -81 199 -81 243 1 12 23 18 55 18 108 0 92
-20 134 -106 226 -52 56 -59 68 -59 104 0 33 4 40 19 40 21 0 31 -26 31 -82
l0 -38 55 0 55 0 0 53 c0 120 -36 169 -128 174 -34 2 -67 -1 -81 -9z"/>
<path d="M1066 2858 c-6 -19 -86 -580 -86 -601 0 -16 8 -18 58 -15 55 3 57 4
60 33 6 68 10 75 47 75 36 0 37 -2 48 -90 2 -11 18 -16 61 -18 l59 -3 -6 34
c-3 19 -24 161 -48 316 l-42 281 -74 0 c-50 0 -75 -4 -77 -12z m98 -370 c6
-36 5 -38 -20 -38 -24 0 -25 2 -20 38 3 20 9 60 13 87 l7 50 7 -50 c4 -27 10
-67 13 -87z"/>
<path d="M1530 2820 l0 -50 35 0 35 0 0 -264 0 -264 68 -4 c45 -3 70 0 78 9 8
9 13 10 22 1 17 -17 15 -23 -13 -36 -31 -14 -48 -15 -40 -3 3 5 1 12 -5 16
-12 8 -13 -26 -1 -57 5 -13 14 -42 21 -66 7 -26 27 -60 54 -87 40 -42 46 -45
96 -45 l53 0 -7 31 c-3 17 -6 46 -6 64 0 27 -6 37 -36 54 -19 12 -32 17 -29
11 3 -5 2 -10 -4 -10 -5 0 -4 -12 4 -27 17 -33 6 -49 -23 -34 -24 13 -38 44
-22 49 7 3 2 10 -9 19 -12 8 -21 21 -21 29 0 17 17 19 22 2 3 -7 7 -6 11 5 3
9 2 17 -4 17 -6 0 -7 5 -4 10 10 17 23 11 28 -12 3 -17 5 -15 6 9 0 17 -4 33
-10 35 -6 2 -11 17 -11 33 0 30 -7 40 -47 68 -24 16 -25 16 -43 -11 -17 -26
-18 -21 -18 216 l0 242 35 0 35 0 0 50 0 50 -125 0 -125 0 0 -50z m264 -555
c3 -8 1 -15 -4 -15 -6 0 -10 7 -10 15 0 8 2 15 4 15 2 0 6 -7 10 -15z m116
-175 c0 -5 -4 -10 -9 -10 -6 0 -13 5 -16 10 -3 6 1 10 9 10 9 0 16 -4 16 -10z"/>
<path d="M1860 2639 c0 -197 -2 -230 -14 -220 -11 9 -20 7 -42 -13 l-29 -24
20 -22 c15 -16 27 -20 48 -16 27 6 29 4 24 -19 -2 -14 -3 -24 0 -22 2 3 19
-11 38 -30 35 -35 37 -35 105 -31 130 7 140 35 140 382 l0 246 -55 0 -55 0 0
-173 0 -173 -30 -11 c-29 -11 -29 -11 -14 -42 9 -17 22 -31 30 -31 8 0 14 -4
14 -10 0 -5 -4 -10 -10 -10 -6 0 -5 -9 1 -24 8 -17 8 -29 0 -45 -15 -27 -41
-28 -34 -1 3 12 0 20 -6 20 -7 0 -9 -5 -5 -12 4 -7 3 -8 -4 -4 -7 4 -11 19
-10 34 1 15 1 129 0 255 l-2 227 -55 0 -55 0 0 -231z m0 -269 c0 -5 -4 -10
-10 -10 -5 0 -10 5 -10 10 0 6 5 10 10 10 6 0 10 -4 10 -10z"/>
<path d="M3178 2798 c-2 -40 -2 -182 0 -315 l3 -243 55 0 54 0 0 315 0 315
-54 0 -54 0 -4 -72z"/>
<path d="M3420 2555 l0 -315 115 0 115 0 0 50 0 50 -60 0 -60 0 0 90 0 90 55
0 55 0 0 50 0 50 -55 0 -55 0 0 75 0 75 55 0 55 0 0 50 0 50 -110 0 -110 0 0
-315z"/>
<path d="M2650 2730 c8 -5 24 -10 35 -10 17 0 17 2 5 10 -8 5 -24 10 -35 10
-17 0 -17 -2 -5 -10z"/>
<path d="M2604 2709 c-6 -10 35 -28 81 -35 30 -4 30 -4 5 7 -70 33 -80 37 -86
28z"/>
<path d="M3110 2660 c0 -13 38 -19 43 -6 3 6 -6 12 -19 12 -13 1 -24 -2 -24
-6z"/>
<path d="M2540 2605 c14 -8 34 -14 45 -14 20 0 20 0 1 14 -11 8 -31 15 -45 15
l-26 -1 25 -14z"/>
<path d="M2619 2497 c-6 -64 1 -73 40 -53 27 14 31 22 31 56 0 22 -4 40 -10
40 -5 0 -10 -6 -10 -13 0 -19 -38 -18 -43 1 -2 9 -5 -5 -8 -31z"/>
<path d="M2654 2396 c-19 -14 -19 -15 5 -85 l24 -71 38 22 c22 12 39 26 39 31
0 16 -65 116 -76 117 -5 0 -19 -6 -30 -14z"/>
<path d="M2101 2248 c-17 -6 -21 -12 -14 -19 13 -13 55 -8 60 7 6 17 -18 23
-46 12z"/>
<path d="M1892 2230 c-7 -11 -9 -20 -4 -20 10 0 32 22 32 32 0 15 -15 8 -28
-12z"/>
<path d="M2178 2185 c-8 -18 -14 -22 -19 -13 -17 27 -16 0 2 -59 11 -35 25
-63 32 -63 7 0 27 12 45 28 l33 27 -27 53 c-30 57 -49 65 -66 27z m48 -28 c8
-17 7 -26 -2 -35 -10 -9 -16 -5 -28 19 -9 17 -13 35 -11 40 9 13 29 1 41 -24z"/>
<path d="M2025 2190 c-3 -5 -1 -10 4 -10 6 0 11 5 11 10 0 6 -2 10 -4 10 -3 0
-8 -4 -11 -10z"/>
<path d="M1910 2160 c0 -5 11 -10 25 -10 14 0 25 5 25 10 0 6 -11 10 -25 10
-14 0 -25 -4 -25 -10z"/>
<path d="M2055 2141 c-9 -15 26 -141 39 -141 15 1 46 25 46 36 0 5 -10 32 -22
61 -21 51 -47 69 -63 44z m22 -53 c-3 -7 -5 -2 -5 12 0 14 2 19 5 13 2 -7 2
-19 0 -25z"/>
<path d="M1978 2103 c7 -3 16 -2 19 1 4 3 -2 6 -13 5 -11 0 -14 -3 -6 -6z"/>
<path d="M1996 2073 c-6 -15 -8 -15 -16 -3 -7 10 -10 -5 -10 -49 l0 -63 28 7
c15 3 31 10 36 15 7 7 -20 110 -29 110 -1 0 -6 -8 -9 -17z"/>
</g>
</svg>
